# xmcd
#
# Track frame offsets:
#	150
#	12938
#	31598
#	46369
#	64496
#	87005
#	100769
#	120126
#	132060
#	149946
#	158682
#	171813
#	195265
#	209867
#	232163
#
# Disc length: 3287 seconds
#
# Revision: 0
# Processed by: cddbd v1.5.1PL0 Copyright (c) Steve Scherf et al.
# Submitted via: dBpowerAMP V4.0
#
DISCID=c90cd50f
DTITLE=Big red and the Wagoneers - Classic Bluegrass Instrumentasl: Live
DYEAR=2004
DGENRE=Bluegrass
TTITLE0=Orange Blossom Special
TTITLE1=Wheel Hoss
TTITLE2=Dear Old Dixie
TTITLE3=Roanoke
TTITLE4=Farewell Blues
TTITLE5=Listen to the Mockinbird
TTITLE6=Old Joe Clark
TTITLE7=Randy Lynn Rag
TTITLE8=Rawhide
TTITLE9=Scuckin The Corn
TTITLE10=Gold Rush
TTITLE11=John Hardy
TTITLE12=Foggy Mountain Special
TTITLE13=Sally Goodin
TTITLE14=Big Mon
EXTD=
EXTT0=
EXTT1=
EXTT2=
EXTT3=
EXTT4=
EXTT5=
EXTT6=
EXTT7=
EXTT8=
EXTT9=
EXTT10=
EXTT11=
EXTT12=
EXTT13=
EXTT14=
PLAYORDER=
